<svg xmlns="http://www.w3.org/2000/svg" viewBox="-61.154998779296875 163.37150354003907 697.3099975585938 248.25699520716816"> <g transform="rotate(0 94.5197212587667 287.50000114362314)"><svg xmlns="http://www.w3.org/2000/svg" xmlns:xlink="http://www.w3.org/1999/xlink" version="1.1" id="xxxx_1" x="8.845001220703125" y="233.37150354003907" viewBox="61.70000457763672 91.59999084472656 210.98757934570312 133.3000030517578" xml:space="preserve" height="108.25699520716815" width="171.34944007612714" preserveAspectRatio="xMinYMin" enable-background="new 0 0 334.5 316.5" style="overflow: visible;"><path class="st0" d="M223.5,91.6L223.5,91.6c0,0.1-0.1,0.1-0.1,0.2c-1.2,1.9-11,17.6-10.6,30.2l-2.7,3.4       c-3.1,3.9-7.9,6.2-12.9,6.2h-32l27-33.8c3.1-3.9,7.9-6.2,12.9-6.2H223.5z" style="fill: #0072CE; fill-opacity: 1;"></path><path class="st1" d="M105.3,168.5c-4.8-6-4.8-14.6,0-20.6l45-56.3h-32c-5,0-9.7,2.3-12.9,6.2l-40.1,50.1       c-4.8,6-4.8,14.6,0,20.6l34.8,43.5l19.8-24.8c-0.2-0.5-0.5-1-0.8-1.5L105.3,168.5z" style="fill: #B1B3B3; fill-opacity: 1;"></path><path class="st0" d="M194.3,144.4l-59,73.7c-3.1,3.9-7.9,6.2-12.9,6.2h-4.3c-2.4,0-4.8-0.5-7-1.5c-2.5-1.1-4.7-2.8-6.4-4.9       l-4.6-5.8l19.8-24.8l29.4-36.8c3.1-3.9,7.9-6.2,12.9-6.2H194.3z" style="fill: #0072CE; fill-opacity: 1;"></path><path class="st1" d="M269.1,168.5L229,218.7c-3.1,3.9-7.9,6.2-12.9,6.2h-32l45-56.3c4.8-6,4.8-14.6,0-20.6l-14-17.5       c-1.6-2.5-2.3-5.4-2.4-8.5c-0.4-12.6,9.4-28.3,10.6-30.2c0,0,0.1-0.1,0.1-0.1l0,0h0.6l45,56.3       C273.9,154,273.9,162.5,269.1,168.5z" style="fill: #B1B3B3; fill-opacity: 1;"></path><path class="st2" d="M212.8,122c0,0-1.6-9.4,10.7-30.3c0,0-20.2,17.3-20.2,38.7C203.3,130.4,207.5,129.4,212.8,122z" style="fill: #004A88; fill-opacity: 1;"></path><path class="st3" d="M100.2,212.1c0,0,18.1-21.3,5.1-43.5l13.9,17.3c0,0,0.6,0.8,0.8,1.5L100.2,212.1z" style="fill: #787878; fill-opacity: 1;"></path><path class="st2" d="M135.3,218.1c0,0,27-33.5,27-73.7h32L135.3,218.1z" style="fill: #004A88; fill-opacity: 1;"></path></svg></g> <g transform="rotate(0 378.5 290.5005012512207)"><svg y="260.8505035400391" viewBox="2.2100000381469727 16.899999618530273 375.30999755859375 59.29999542236328" x="190.84500122070312" height="59.29999542236328" width="375.30999755859375" xmlns="http://www.w3.org/2000/svg" style="overflow: visible;"><g fill="#B1B3B3" fill-opacity="1" style=""><path d="M50.59 41.28L50.59 41.28Q50.59 46.53 48.84 51.00Q47.09 55.47 43.92 58.74Q40.76 62.01 36.30 63.84Q31.85 65.67 26.43 65.67L26.43 65.67Q21.02 65.67 16.55 63.84Q12.08 62.01 8.89 58.74Q5.71 55.47 3.96 51.00Q2.21 46.53 2.21 41.28L2.21 41.28Q2.21 36.04 3.96 31.56Q5.71 27.09 8.89 23.83Q12.08 20.56 16.55 18.73Q21.02 16.90 26.43 16.90L26.43 16.90Q31.85 16.90 36.30 18.74Q40.76 20.59 43.92 23.84Q47.09 27.09 48.84 31.56Q50.59 36.04 50.59 41.28ZM41.48 41.28L41.48 41.28Q41.48 37.36 40.44 34.24Q39.40 31.12 37.45 28.94Q35.51 26.76 32.72 25.61Q29.93 24.45 26.43 24.45L26.43 24.45Q22.94 24.45 20.13 25.61Q17.32 26.76 15.36 28.94Q13.40 31.12 12.34 34.24Q11.29 37.36 11.29 41.28L11.29 41.28Q11.29 45.21 12.34 48.33Q13.40 51.45 15.36 53.61Q17.32 55.77 20.13 56.93Q22.94 58.08 26.43 58.08L26.43 58.08Q29.93 58.08 32.72 56.93Q35.51 55.77 37.45 53.61Q39.40 51.45 40.44 48.33Q41.48 45.21 41.48 41.28ZM65.27 76.20L57.12 76.20L57.12 31.28L62.11 31.28Q62.90 31.28 63.46 31.65Q64.02 32.01 64.19 32.77L64.19 32.77L64.84 35.90Q66.89 33.56 69.55 32.11Q72.20 30.66 75.77 30.66L75.77 30.66Q78.54 30.66 80.83 31.81Q83.13 32.97 84.79 35.16Q86.46 37.36 87.37 40.57Q88.28 43.79 88.28 47.95L88.28 47.95Q88.28 51.74 87.25 54.98Q86.23 58.21 84.33 60.59Q82.43 62.96 79.74 64.30Q77.06 65.64 73.72 65.64L73.72 65.64Q70.85 65.64 68.85 64.76Q66.86 63.89 65.27 62.34L65.27 62.34L65.27 76.20ZM72.96 37.09L72.96 37.09Q70.42 37.09 68.62 38.16Q66.83 39.24 65.27 41.18L65.27 41.18L65.27 56.36Q66.66 58.08 68.29 58.76Q69.93 59.43 71.81 59.43L71.81 59.43Q73.66 59.43 75.16 58.74Q76.66 58.05 77.70 56.63Q78.74 55.21 79.30 53.05Q79.86 50.89 79.86 47.95L79.86 47.95Q79.86 44.98 79.38 42.92Q78.90 40.85 78.01 39.57Q77.12 38.28 75.85 37.69Q74.58 37.09 72.96 37.09ZM108.44 30.76L108.44 30.76Q111.64 30.76 114.33 31.78Q117.02 32.80 118.97 34.77Q120.91 36.73 122.00 39.58Q123.09 42.44 123.09 46.10L123.09 46.10Q123.09 47.03 123.01 47.64Q122.93 48.25 122.71 48.59Q122.50 48.94 122.13 49.09Q121.77 49.24 121.21 49.24L121.21 49.24L100.29 49.24Q100.65 54.45 103.09 56.89Q105.53 59.33 109.56 59.33L109.56 59.33Q111.54 59.33 112.98 58.87Q114.41 58.41 115.48 57.85Q116.56 57.29 117.36 56.83Q118.17 56.36 118.93 56.36L118.93 56.36Q119.43 56.36 119.79 56.56Q120.15 56.76 120.42 57.12L120.42 57.12L122.79 60.09Q121.44 61.68 119.76 62.75Q118.07 63.82 116.24 64.47Q114.41 65.11 112.51 65.37Q110.62 65.64 108.83 65.64L108.83 65.64Q105.30 65.64 102.27 64.47Q99.23 63.29 96.99 61.00Q94.74 58.71 93.46 55.32Q92.17 51.94 92.17 47.49L92.17 47.49Q92.17 44.02 93.29 40.97Q94.41 37.92 96.51 35.66Q98.60 33.40 101.62 32.08Q104.64 30.76 108.44 30.76ZM108.60 36.60L108.60 36.60Q105.04 36.60 103.03 38.61Q101.01 40.62 100.45 44.32L100.45 44.32L115.76 44.32Q115.76 42.74 115.34 41.33Q114.91 39.93 114.02 38.87Q113.12 37.82 111.77 37.21Q110.42 36.60 108.60 36.60ZM137.87 65.14L129.72 65.14L129.72 31.28L134.71 31.28Q136.29 31.28 136.78 32.77L136.78 32.77L137.35 35.44Q138.37 34.39 139.51 33.53Q140.65 32.67 141.92 32.04Q143.19 31.42 144.64 31.09Q146.09 30.76 147.81 30.76L147.81 30.76Q150.58 30.76 152.72 31.70Q154.87 32.64 156.30 34.34Q157.74 36.04 158.48 38.40Q159.23 40.76 159.23 43.59L159.23 43.59L159.23 65.14L151.07 65.14L151.07 43.59Q151.07 40.49 149.64 38.79Q148.20 37.09 145.33 37.09L145.33 37.09Q143.22 37.09 141.37 38.05Q139.52 39.01 137.87 40.66L137.87 40.66L137.87 65.14ZM208.20 21.91L206.02 26.10Q205.66 26.83 205.18 27.13Q204.70 27.42 204.04 27.42L204.04 27.42Q203.38 27.42 202.55 26.91Q201.73 26.40 200.61 25.77Q199.49 25.15 197.98 24.63Q196.48 24.12 194.44 24.12L194.44 24.12Q192.59 24.12 191.22 24.57Q189.85 25.01 188.91 25.81Q187.97 26.60 187.51 27.70Q187.04 28.81 187.04 30.13L187.04 30.13Q187.04 31.81 187.98 32.93Q188.93 34.06 190.48 34.85Q192.03 35.64 194.01 36.27Q195.99 36.89 198.05 37.60Q200.11 38.31 202.09 39.25Q204.07 40.19 205.62 41.63Q207.17 43.07 208.11 45.14Q209.06 47.22 209.06 50.19L209.06 50.19Q209.06 53.43 207.95 56.25Q206.84 59.07 204.72 61.17Q202.59 63.26 199.52 64.47Q196.45 65.67 192.49 65.67L192.49 65.67Q190.21 65.67 188.00 65.22Q185.79 64.78 183.76 63.95Q181.73 63.13 179.97 61.97Q178.20 60.82 176.81 59.40L176.81 59.40L179.39 55.14Q179.75 54.68 180.26 54.37Q180.77 54.05 181.40 54.05L181.40 54.05Q182.23 54.05 183.18 54.73Q184.14 55.41 185.44 56.23Q186.75 57.06 188.51 57.73Q190.28 58.41 192.75 58.41L192.75 58.41Q196.55 58.41 198.63 56.61Q200.71 54.81 200.71 51.45L200.71 51.45Q200.71 49.57 199.77 48.38Q198.83 47.19 197.27 46.38Q195.72 45.57 193.74 45.01Q191.76 44.45 189.72 43.79Q187.67 43.13 185.69 42.21Q183.71 41.28 182.16 39.80Q180.61 38.31 179.67 36.09Q178.73 33.86 178.73 30.59L178.73 30.59Q178.73 27.98 179.77 25.51Q180.81 23.03 182.80 21.12Q184.80 19.21 187.70 18.05Q190.61 16.90 194.34 16.90L194.34 16.90Q198.56 16.90 202.13 18.22Q205.69 19.54 208.20 21.91L208.20 21.91ZM229.84 30.76L229.84 30.76Q233.64 30.76 236.73 31.98Q239.81 33.20 241.99 35.44Q244.17 37.69 245.35 40.92Q246.54 44.15 246.54 48.15L246.54 48.15Q246.54 52.17 245.35 55.41Q244.17 58.64 241.99 60.92Q239.81 63.20 236.73 64.42Q233.64 65.64 229.84 65.64L229.84 65.64Q226.05 65.64 222.95 64.42Q219.85 63.20 217.65 60.92Q215.46 58.64 214.25 55.41Q213.05 52.17 213.05 48.15L213.05 48.15Q213.05 44.15 214.25 40.92Q215.46 37.69 217.65 35.44Q219.85 33.20 222.95 31.98Q226.05 30.76 229.84 30.76ZM229.84 59.37L229.84 59.37Q234.07 59.37 236.10 56.53Q238.13 53.69 238.13 48.21L238.13 48.21Q238.13 42.74 236.10 39.86Q234.07 36.99 229.84 36.99L229.84 36.99Q225.56 36.99 223.51 39.88Q221.46 42.77 221.46 48.21L221.46 48.21Q221.46 53.66 223.51 56.51Q225.56 59.37 229.84 59.37ZM252.22 31.28L260.37 31.28L260.37 52.80Q260.37 55.90 261.81 57.60Q263.24 59.30 266.11 59.30L266.11 59.30Q268.22 59.30 270.07 58.36Q271.92 57.42 273.57 55.77L273.57 55.77L273.57 31.28L281.72 31.28L281.72 65.14L276.74 65.14Q275.15 65.14 274.66 63.66L274.66 63.66L274.10 60.95Q273.04 62.01 271.92 62.88Q270.80 63.76 269.53 64.37Q268.26 64.98 266.79 65.32Q265.32 65.67 263.64 65.67L263.64 65.67Q260.87 65.67 258.74 64.73Q256.61 63.79 255.16 62.07Q253.70 60.36 252.96 58.00Q252.22 55.64 252.22 52.80L252.22 52.80L252.22 31.28ZM298.58 65.14L290.43 65.14L290.43 31.28L295.22 31.28Q296.47 31.28 296.97 31.75Q297.46 32.21 297.63 33.33L297.63 33.33L298.12 37.42Q299.94 34.29 302.38 32.47Q304.82 30.66 307.86 30.66L307.86 30.66Q310.37 30.66 312.01 31.81L312.01 31.81L310.96 37.92Q310.86 38.51 310.53 38.76Q310.20 39.01 309.64 39.01L309.64 39.01Q309.14 39.01 308.29 38.78Q307.43 38.54 306.01 38.54L306.01 38.54Q303.47 38.54 301.65 39.95Q299.84 41.35 298.58 44.06L298.58 44.06L298.58 65.14ZM343.33 35.48L341.19 38.45Q340.82 38.91 340.48 39.17Q340.13 39.44 339.47 39.44L339.47 39.44Q338.84 39.44 338.25 39.06Q337.66 38.68 336.83 38.20Q336.01 37.72 334.87 37.34Q333.73 36.96 332.05 36.96L332.05 36.96Q329.90 36.96 328.28 37.74Q326.67 38.51 325.59 39.96Q324.52 41.42 323.99 43.48Q323.47 45.54 323.47 48.15L323.47 48.15Q323.47 50.85 324.04 52.97Q324.62 55.08 325.71 56.51Q326.80 57.95 328.35 58.69Q329.90 59.43 331.85 59.43L331.85 59.43Q333.80 59.43 335.00 58.95Q336.20 58.48 337.03 57.90Q337.85 57.32 338.46 56.84Q339.07 56.36 339.83 56.36L339.83 56.36Q340.82 56.36 341.32 57.12L341.32 57.12L343.66 60.09Q342.31 61.68 340.73 62.75Q339.14 63.82 337.44 64.47Q335.74 65.11 333.93 65.37Q332.11 65.64 330.33 65.64L330.33 65.64Q327.19 65.64 324.42 64.47Q321.65 63.29 319.59 61.05Q317.53 58.81 316.32 55.56Q315.12 52.31 315.12 48.15L315.12 48.15Q315.12 44.42 316.19 41.23Q317.26 38.05 319.34 35.72Q321.42 33.40 324.49 32.08Q327.56 30.76 331.55 30.76L331.55 30.76Q335.35 30.76 338.20 31.98Q341.06 33.20 343.33 35.48L343.33 35.48ZM362.87 30.76L362.87 30.76Q366.07 30.76 368.76 31.78Q371.45 32.80 373.40 34.77Q375.34 36.73 376.43 39.58Q377.52 42.44 377.52 46.10L377.52 46.10Q377.52 47.03 377.44 47.64Q377.36 48.25 377.14 48.59Q376.93 48.94 376.56 49.09Q376.20 49.24 375.64 49.24L375.64 49.24L354.72 49.24Q355.08 54.45 357.52 56.89Q359.96 59.33 363.99 59.33L363.99 59.33Q365.97 59.33 367.41 58.87Q368.84 58.41 369.91 57.85Q370.99 57.29 371.79 56.83Q372.60 56.36 373.36 56.36L373.36 56.36Q373.86 56.36 374.22 56.56Q374.58 56.76 374.85 57.12L374.85 57.12L377.22 60.09Q375.87 61.68 374.19 62.75Q372.50 63.82 370.67 64.47Q368.84 65.11 366.94 65.37Q365.05 65.64 363.26 65.64L363.26 65.64Q359.73 65.64 356.70 64.47Q353.66 63.29 351.42 61.00Q349.17 58.71 347.89 55.32Q346.60 51.94 346.60 47.49L346.60 47.49Q346.60 44.02 347.72 40.97Q348.84 37.92 350.94 35.66Q353.03 33.40 356.05 32.08Q359.07 30.76 362.87 30.76ZM363.03 36.60L363.03 36.60Q359.47 36.60 357.46 38.61Q355.44 40.62 354.88 44.32L354.88 44.32L370.19 44.32Q370.19 42.74 369.77 41.33Q369.34 39.93 368.45 38.87Q367.55 37.82 366.20 37.21Q364.85 36.60 363.03 36.60Z" transform="translate(0, 0)"></path></g></svg></g></svg>