<svg xmlns="http://www.w3.org/2000/svg" viewBox="128.34000244140626 147.14999961853027 318.3199920654297 265.0950002670288"> <svg xmlns="http://www.w3.org/2000/svg" xmlns:xlink="http://www.w3.org/1999/xlink" version="1.1" id="xxxx_1" x="228.01" y="217.14999961853027" viewBox="61.70000457763672 91.59999084472656 210.98757934570312 133.3000030517578" xml:space="preserve" height="75.16837151945593" width="118.9766845703125" preserveAspectRatio="xMinYMin" enable-background="new 0 0 334.5 316.5" style="overflow: visible;"><path class="st0" d="M223.5,91.6L223.5,91.6c0,0.1-0.1,0.1-0.1,0.2c-1.2,1.9-11,17.6-10.6,30.2l-2.7,3.4       c-3.1,3.9-7.9,6.2-12.9,6.2h-32l27-33.8c3.1-3.9,7.9-6.2,12.9-6.2H223.5z" style="fill: #25b4e8; fill-opacity: 1;"></path><path class="st1" d="M105.3,168.5c-4.8-6-4.8-14.6,0-20.6l45-56.3h-32c-5,0-9.7,2.3-12.9,6.2l-40.1,50.1       c-4.8,6-4.8,14.6,0,20.6l34.8,43.5l19.8-24.8c-0.2-0.5-0.5-1-0.8-1.5L105.3,168.5z" style="fill: #ffffff; fill-opacity: 1;"></path><path class="st0" d="M194.3,144.4l-59,73.7c-3.1,3.9-7.9,6.2-12.9,6.2h-4.3c-2.4,0-4.8-0.5-7-1.5c-2.5-1.1-4.7-2.8-6.4-4.9       l-4.6-5.8l19.8-24.8l29.4-36.8c3.1-3.9,7.9-6.2,12.9-6.2H194.3z" style="fill: #25b4e8; fill-opacity: 1;"></path><path class="st1" d="M269.1,168.5L229,218.7c-3.1,3.9-7.9,6.2-12.9,6.2h-32l45-56.3c4.8-6,4.8-14.6,0-20.6l-14-17.5       c-1.6-2.5-2.3-5.4-2.4-8.5c-0.4-12.6,9.4-28.3,10.6-30.2c0,0,0.1-0.1,0.1-0.1l0,0h0.6l45,56.3       C273.9,154,273.9,162.5,269.1,168.5z" style="fill: #ffffff; fill-opacity: 1;"></path><path class="st2" d="M212.8,122c0,0-1.6-9.4,10.7-30.3c0,0-20.2,17.3-20.2,38.7C203.3,130.4,207.5,129.4,212.8,122z" style="fill: #1674b0; fill-opacity: 1;"></path><path class="st3" d="M100.2,212.1c0,0,18.1-21.3,5.1-43.5l13.9,17.3c0,0,0.6,0.8,0.8,1.5L100.2,212.1z" style="fill: #cfcfcf; fill-opacity: 1;"></path><path class="st2" d="M135.3,218.1c0,0,27-33.5,27-73.7h32L135.3,218.1z" style="fill: #1674b0; fill-opacity: 1;"></path></svg> <svg y="313.57499980926514" viewBox="1.4700000286102295 8.399999618530273 178.3199920654297 28.670000076293945" x="198.34000244140626" height="28.670000076293945" width="178.3199920654297" style="overflow: visible;"><g fill="#ffffff" style=""><path d="M24.08 20.13L24.08 20.13Q24.08 22.70 23.26 24.86Q22.45 27.01 20.96 28.56Q19.47 30.11 17.38 30.97Q15.30 31.82 12.77 31.82L12.77 31.82Q10.24 31.82 8.16 30.97Q6.08 30.11 4.59 28.56Q3.10 27.01 2.29 24.86Q1.47 22.70 1.47 20.13L1.47 20.13Q1.47 17.55 2.29 15.40Q3.10 13.25 4.59 11.69Q6.08 10.13 8.16 9.26Q10.24 8.40 12.77 8.40L12.77 8.40Q15.30 8.40 17.38 9.26Q19.47 10.13 20.96 11.69Q22.45 13.25 23.26 15.40Q24.08 17.55 24.08 20.13ZM20.90 20.13L20.90 20.13Q20.90 18.02 20.32 16.34Q19.74 14.66 18.69 13.50Q17.63 12.34 16.13 11.71Q14.62 11.09 12.77 11.09L12.77 11.09Q10.93 11.09 9.42 11.71Q7.92 12.34 6.86 13.50Q5.79 14.66 5.22 16.34Q4.64 18.02 4.64 20.13L4.64 20.13Q4.64 22.24 5.22 23.91Q5.79 25.58 6.86 26.74Q7.92 27.90 9.42 28.52Q10.93 29.14 12.77 29.14L12.77 29.14Q14.62 29.14 16.13 28.52Q17.63 27.90 18.69 26.74Q19.74 25.58 20.32 23.91Q20.90 22.24 20.90 20.13ZM30.72 37.07L27.87 37.07L27.87 15.38L29.57 15.38Q30.18 15.38 30.34 15.97L30.34 15.97L30.58 17.89Q31.62 16.62 32.95 15.86Q34.29 15.09 36.03 15.09L36.03 15.09Q37.42 15.09 38.56 15.62Q39.70 16.16 40.50 17.21Q41.30 18.26 41.73 19.81Q42.16 21.36 42.16 23.38L42.16 23.38Q42.16 25.17 41.68 26.71Q41.20 28.26 40.30 29.38Q39.41 30.51 38.10 31.16Q36.80 31.81 35.17 31.81L35.17 31.81Q33.66 31.81 32.60 31.31Q31.54 30.82 30.72 29.90L30.72 29.90L30.72 37.07ZM35.09 17.39L35.09 17.39Q33.70 17.39 32.65 18.03Q31.60 18.67 30.72 19.84L30.72 19.84L30.72 27.68Q31.50 28.74 32.44 29.17Q33.38 29.60 34.53 29.60L34.53 29.60Q36.78 29.60 38 27.98Q39.22 26.37 39.22 23.38L39.22 23.38Q39.22 21.79 38.94 20.66Q38.66 19.52 38.13 18.79Q37.60 18.06 36.83 17.73Q36.06 17.39 35.09 17.39ZM51.95 15.12L51.95 15.12Q53.41 15.12 54.64 15.61Q55.87 16.10 56.77 17.02Q57.66 17.94 58.17 19.29Q58.67 20.64 58.67 22.37L58.67 22.37Q58.67 23.04 58.53 23.26Q58.38 23.49 57.98 23.49L57.98 23.49L47.20 23.49Q47.23 25.02 47.62 26.16Q48 27.30 48.67 28.06Q49.34 28.82 50.27 29.19Q51.20 29.57 52.35 29.57L52.35 29.57Q53.42 29.57 54.20 29.32Q54.98 29.07 55.54 28.78Q56.10 28.50 56.47 28.25Q56.85 28 57.12 28L57.12 28Q57.47 28 57.66 28.27L57.66 28.27L58.46 29.31Q57.94 29.95 57.20 30.42Q56.46 30.90 55.62 31.20Q54.78 31.50 53.89 31.66Q52.99 31.81 52.11 31.81L52.11 31.81Q50.43 31.81 49.02 31.24Q47.60 30.67 46.57 29.58Q45.54 28.48 44.96 26.86Q44.38 25.25 44.38 23.15L44.38 23.15Q44.38 21.46 44.90 19.98Q45.42 18.51 46.40 17.43Q47.38 16.35 48.78 15.74Q50.19 15.12 51.95 15.12ZM52.02 17.22L52.02 17.22Q49.95 17.22 48.77 18.41Q47.58 19.60 47.30 21.71L47.30 21.71L56.11 21.71Q56.11 20.72 55.84 19.90Q55.57 19.07 55.04 18.47Q54.51 17.87 53.75 17.54Q52.99 17.22 52.02 17.22ZM65.15 31.58L62.30 31.58L62.30 15.38L64 15.38Q64.61 15.38 64.77 15.97L64.77 15.97L64.99 17.73Q66.05 16.56 67.35 15.84Q68.66 15.12 70.37 15.12L70.37 15.12Q71.70 15.12 72.71 15.56Q73.73 16 74.41 16.81Q75.09 17.62 75.44 18.75Q75.79 19.89 75.79 21.26L75.79 21.26L75.79 31.58L72.94 31.58L72.94 21.26Q72.94 19.42 72.10 18.41Q71.26 17.39 69.54 17.39L69.54 17.39Q68.27 17.39 67.18 18Q66.08 18.61 65.15 19.65L65.15 19.65L65.15 31.58ZM99.22 10.77L98.46 12.24Q98.32 12.48 98.16 12.60Q98 12.72 97.74 12.72L97.74 12.72Q97.47 12.72 97.11 12.45Q96.75 12.18 96.20 11.85Q95.65 11.52 94.87 11.25Q94.10 10.98 92.99 10.98L92.99 10.98Q91.95 10.98 91.15 11.26Q90.35 11.54 89.82 12.02Q89.28 12.50 89.01 13.14Q88.74 13.79 88.74 14.54L88.74 14.54Q88.74 15.50 89.21 16.14Q89.68 16.77 90.46 17.22Q91.23 17.66 92.22 17.99Q93.20 18.32 94.23 18.67Q95.26 19.02 96.25 19.46Q97.23 19.90 98.01 20.58Q98.78 21.25 99.26 22.22Q99.73 23.20 99.73 24.62L99.73 24.62Q99.73 26.13 99.22 27.45Q98.70 28.77 97.72 29.74Q96.74 30.72 95.30 31.28Q93.87 31.84 92.05 31.84L92.05 31.84Q89.82 31.84 87.99 31.03Q86.16 30.22 84.86 28.85L84.86 28.85L85.76 27.38Q85.89 27.20 86.07 27.08Q86.26 26.96 86.48 26.96L86.48 26.96Q86.82 26.96 87.25 27.32Q87.68 27.68 88.33 28.11Q88.98 28.54 89.90 28.90Q90.82 29.26 92.14 29.26L92.14 29.26Q93.25 29.26 94.11 28.96Q94.98 28.66 95.58 28.10Q96.18 27.55 96.50 26.78Q96.82 26.02 96.82 25.07L96.82 25.07Q96.82 24.03 96.34 23.37Q95.87 22.70 95.10 22.26Q94.34 21.81 93.35 21.50Q92.37 21.18 91.34 20.86Q90.30 20.53 89.32 20.10Q88.34 19.66 87.57 18.98Q86.80 18.29 86.33 17.26Q85.86 16.22 85.86 14.70L85.86 14.70Q85.86 13.49 86.33 12.35Q86.80 11.22 87.70 10.34Q88.59 9.46 89.91 8.93Q91.23 8.40 92.94 8.40L92.94 8.40Q94.86 8.40 96.45 9.01Q98.03 9.62 99.22 10.77L99.22 10.77ZM109.79 15.12L109.79 15.12Q111.57 15.12 113.00 15.71Q114.43 16.30 115.43 17.39Q116.43 18.48 116.97 20.02Q117.50 21.57 117.50 23.47L117.50 23.47Q117.50 25.39 116.97 26.93Q116.43 28.46 115.43 29.55Q114.43 30.64 113.00 31.22Q111.57 31.81 109.79 31.81L109.79 31.81Q108.02 31.81 106.58 31.22Q105.15 30.64 104.14 29.55Q103.14 28.46 102.59 26.93Q102.05 25.39 102.05 23.47L102.05 23.47Q102.05 21.57 102.59 20.02Q103.14 18.48 104.14 17.39Q105.15 16.30 106.58 15.71Q108.02 15.12 109.79 15.12ZM109.79 29.58L109.79 29.58Q112.19 29.58 113.38 27.98Q114.56 26.37 114.56 23.49L114.56 23.49Q114.56 20.59 113.38 18.98Q112.19 17.36 109.79 17.36L109.79 17.36Q108.58 17.36 107.68 17.78Q106.78 18.19 106.18 18.98Q105.58 19.76 105.29 20.90Q104.99 22.05 104.99 23.49L104.99 23.49Q104.99 24.93 105.29 26.06Q105.58 27.20 106.18 27.98Q106.78 28.75 107.68 29.17Q108.58 29.58 109.79 29.58ZM120.64 15.38L123.49 15.38L123.49 25.71Q123.49 27.55 124.34 28.56Q125.18 29.57 126.90 29.57L126.90 29.57Q128.14 29.57 129.25 28.98Q130.35 28.38 131.28 27.33L131.28 27.33L131.28 15.38L134.13 15.38L134.13 31.58L132.43 31.58Q131.82 31.58 131.66 30.99L131.66 30.99L131.44 29.25Q130.38 30.42 129.07 31.13Q127.76 31.84 126.06 31.84L126.06 31.84Q124.74 31.84 123.72 31.40Q122.70 30.96 122.02 30.16Q121.33 29.36 120.98 28.22Q120.64 27.09 120.64 25.71L120.64 25.71L120.64 15.38ZM141.66 31.58L138.82 31.58L138.82 15.38L140.45 15.38Q140.91 15.38 141.09 15.55Q141.26 15.73 141.33 16.16L141.33 16.16L141.52 18.69Q142.35 16.99 143.58 16.04Q144.80 15.09 146.45 15.09L146.45 15.09Q147.12 15.09 147.66 15.24Q148.21 15.39 148.67 15.66L148.67 15.66L148.30 17.79Q148.19 18.19 147.81 18.19L147.81 18.19Q147.58 18.19 147.12 18.04Q146.66 17.89 145.82 17.89L145.82 17.89Q144.34 17.89 143.34 18.75Q142.34 19.62 141.66 21.26L141.66 21.26L141.66 31.58ZM163.52 17.23L162.77 18.26Q162.64 18.43 162.51 18.53Q162.38 18.62 162.14 18.62L162.14 18.62Q161.90 18.62 161.62 18.42Q161.34 18.22 160.91 17.98Q160.48 17.74 159.86 17.54Q159.25 17.34 158.35 17.34L158.35 17.34Q157.17 17.34 156.26 17.77Q155.34 18.19 154.73 18.99Q154.11 19.79 153.80 20.93Q153.49 22.06 153.49 23.47L153.49 23.47Q153.49 24.94 153.82 26.09Q154.16 27.23 154.77 28.01Q155.38 28.78 156.25 29.19Q157.12 29.60 158.21 29.60L158.21 29.60Q159.25 29.60 159.92 29.35Q160.59 29.10 161.04 28.80Q161.49 28.50 161.78 28.25Q162.06 28 162.35 28L162.35 28Q162.72 28 162.90 28.27L162.90 28.27L163.70 29.31Q162.64 30.61 161.06 31.21Q159.47 31.81 157.71 31.81L157.71 31.81Q156.19 31.81 154.89 31.25Q153.58 30.69 152.62 29.62Q151.66 28.56 151.11 27.01Q150.56 25.46 150.56 23.47L150.56 23.47Q150.56 21.66 151.06 20.13Q151.57 18.59 152.54 17.48Q153.50 16.37 154.93 15.74Q156.35 15.12 158.19 15.12L158.19 15.12Q159.89 15.12 161.20 15.67Q162.51 16.22 163.52 17.23L163.52 17.23ZM173.07 15.12L173.07 15.12Q174.53 15.12 175.76 15.61Q176.99 16.10 177.89 17.02Q178.78 17.94 179.29 19.29Q179.79 20.64 179.79 22.37L179.79 22.37Q179.79 23.04 179.65 23.26Q179.50 23.49 179.10 23.49L179.10 23.49L168.32 23.49Q168.35 25.02 168.74 26.16Q169.12 27.30 169.79 28.06Q170.46 28.82 171.39 29.19Q172.32 29.57 173.47 29.57L173.47 29.57Q174.54 29.57 175.32 29.32Q176.10 29.07 176.66 28.78Q177.22 28.50 177.59 28.25Q177.97 28 178.24 28L178.24 28Q178.59 28 178.78 28.27L178.78 28.27L179.58 29.31Q179.06 29.95 178.32 30.42Q177.58 30.90 176.74 31.20Q175.90 31.50 175.01 31.66Q174.11 31.81 173.23 31.81L173.23 31.81Q171.55 31.81 170.14 31.24Q168.72 30.67 167.69 29.58Q166.66 28.48 166.08 26.86Q165.50 25.25 165.50 23.15L165.50 23.15Q165.50 21.46 166.02 19.98Q166.54 18.51 167.52 17.43Q168.50 16.35 169.90 15.74Q171.31 15.12 173.07 15.12ZM173.14 17.22L173.14 17.22Q171.07 17.22 169.89 18.41Q168.70 19.60 168.42 21.71L168.42 21.71L177.23 21.71Q177.23 20.72 176.96 19.90Q176.69 19.07 176.16 18.47Q175.63 17.87 174.87 17.54Q174.11 17.22 173.14 17.22Z" transform="translate(0, 0)"></path></g></svg></svg>